<?xml version="1.0" encoding="UTF-8"?>
<svg id="Layer_2" data-name="Layer 2" xmlns="http://www.w3.org/2000/svg" viewBox="0 0 322.35 86.43">
  <g id="Layer_1_copy_2" data-name="Layer 1 copy 2">
    <g>
      <path d="m26.48,28.99c-5.38-3.4-8.56-5.49-9.53-6.29-1.77-1.51-2.99-2.91-3.66-4.2-.67-1.28-1-2.61-1-3.98,0-2.25.94-4.15,2.83-5.69,1.89-1.54,4.32-2.31,7.3-2.31,2.31,0,4.44.5,6.39,1.5,1.96,1,4.32,3.07,7.1,6.21l6.02-3.9c-3.38-3.94-6.58-6.64-9.6-8.11-3.03-1.47-6.28-2.21-9.75-2.21-3.28,0-6.31.65-9.1,1.95-2.79,1.3-4.96,3.08-6.49,5.33-1.54,2.26-2.31,4.75-2.31,7.49,0,3.45,1.3,6.67,3.91,9.63,1.5,1.77,5.33,4.64,11.48,8.61,6.12,3.94,10.33,7.31,12.64,10.1,1.67,2.03,2.51,4.1,2.51,6.21,0,1.86-.57,3.61-1.71,5.27-1.14,1.66-2.79,2.98-4.96,3.96-2.17.98-4.5,1.48-6.97,1.48-5.78,0-10.88-3.47-15.29-10.4l-6.27,3.21c3.08,4.8,6.44,8.21,10.08,10.25,3.64,2.04,7.71,3.06,12.19,3.06,5.82,0,10.76-1.68,14.82-5.05,4.06-3.37,6.09-7.34,6.09-11.9,0-3.17-1.19-6.32-3.56-9.46-2.37-3.14-6.75-6.72-13.14-10.75Z"/>
      <path d="m68.32,34.13c4.1,0,7.79,1.73,11.06,5.2l4.82-4.59c-2-2.33-4.38-4.12-7.15-5.38-2.76-1.26-5.64-1.89-8.63-1.89-3.51,0-6.79.85-9.83,2.56-3.04,1.71-5.38,3.96-7.01,6.77-1.63,2.81-2.45,6.01-2.45,9.62,0,5.58,1.79,10.15,5.38,13.72s8.19,5.35,13.82,5.35c3.05,0,5.77-.5,8.15-1.51,2.38-1.01,4.91-2.82,7.58-5.43l-4.67-4.88c-1.98,1.97-3.8,3.33-5.46,4.08-1.66.75-3.48,1.12-5.48,1.12-2.34,0-4.48-.53-6.39-1.6s-3.4-2.54-4.45-4.41c-1.05-1.87-1.57-4.02-1.57-6.43,0-3.47,1.18-6.38,3.55-8.75,2.37-2.36,5.28-3.55,8.74-3.55Z"/>
      <path d="m105.32,27.46c-3.38,0-6.54.85-9.47,2.55-2.93,1.7-5.23,4-6.91,6.9-1.67,2.9-2.51,6.09-2.51,9.55,0,5.17,1.8,9.63,5.39,13.39,3.6,3.76,8.11,5.64,13.54,5.64s9.6-1.83,13.24-5.49c3.64-3.66,5.46-8.13,5.46-13.41s-1.84-9.85-5.53-13.56c-3.69-3.71-8.09-5.56-13.21-5.56Zm8.4,27.81c-2.3,2.36-5.08,3.54-8.35,3.54-2.89,0-5.45-.91-7.69-2.73-2.87-2.33-4.31-5.5-4.31-9.5,0-3.59,1.14-6.55,3.42-8.88,2.28-2.33,5.1-3.49,8.45-3.49s6.13,1.19,8.45,3.58c2.31,2.39,3.47,5.3,3.47,8.75s-1.15,6.37-3.45,8.74Z"/>
      <path d="m146.65,27.46c-3.38,0-6.54.85-9.47,2.55-2.93,1.7-5.23,4-6.91,6.9-1.67,2.9-2.51,6.09-2.51,9.55,0,5.17,1.8,9.63,5.39,13.39,3.6,3.76,8.11,5.64,13.54,5.64s9.6-1.83,13.24-5.49c3.64-3.66,5.46-8.13,5.46-13.41s-1.84-9.85-5.53-13.56c-3.69-3.71-8.09-5.56-13.21-5.56Zm8.4,27.81c-2.3,2.36-5.08,3.54-8.35,3.54-2.89,0-5.45-.91-7.69-2.73-2.87-2.33-4.31-5.5-4.31-9.5,0-3.59,1.14-6.55,3.42-8.88,2.28-2.33,5.1-3.49,8.45-3.49s6.13,1.19,8.45,3.58c2.32,2.39,3.47,5.3,3.47,8.75s-1.15,6.37-3.45,8.74Z"/>
      <polygon points="164.32 35.16 175.74 35.16 175.74 64.57 182.73 64.57 182.73 35.16 194.33 35.16 194.33 28.37 164.32 28.37 164.32 35.16"/>
      <path d="m245.32,70.79c-1.54,0-2.98.38-4.27,1.14s-2.33,1.84-3.11,3.23c-.76,1.37-1.15,2.82-1.15,4.31,0,1.87.6,3.49,1.77,4.83.86.98,2.46,2.14,5.17,2.14,2.36,0,4.39-.84,6.04-2.51,1.64-1.66,2.48-3.7,2.48-6.06,0-2.06-.65-3.77-1.94-5.08-1.28-1.31-3.01-2-4.99-2Zm1.1,9.81c-.75.76-1.6,1.11-2.68,1.11-1.15,0-1.49-.39-1.62-.54-.4-.46-.59-1-.59-1.71s.18-1.34.55-2.01c.36-.65.81-1.13,1.37-1.46.56-.33,1.18-.49,1.88-.49.93,0,1.36.31,1.62.58.25.26.59.72.59,1.78s-.35,1.97-1.11,2.73Z"/>
      <polygon points="244.81 56.88 266.51 18.54 225.95 18.54 229.19 11.08 274.58 11.08 278.4 1.75 222.67 1.75 219.81 9.03 205.42 42.89 237.77 42.89 241.61 33.7 219.53 33.7 222.15 27.86 250.98 27.86 229.22 66.07 318.51 66.07 322.35 56.88 244.81 56.88"/>
      <path d="m307.7,70.79c-1.54,0-2.98.38-4.27,1.14-1.29.76-2.33,1.84-3.11,3.23-.76,1.37-1.15,2.82-1.15,4.31,0,1.87.6,3.49,1.77,4.83.86.98,2.46,2.14,5.17,2.14,2.36,0,4.39-.84,6.04-2.51,1.64-1.66,2.48-3.7,2.48-6.06,0-2.06-.65-3.77-1.94-5.08-1.28-1.31-3.01-2-4.99-2Zm1.1,9.81c-.75.76-1.6,1.11-2.68,1.11-1.15,0-1.49-.39-1.62-.54-.4-.46-.59-1-.59-1.71s.18-1.34.55-2.01c.36-.65.81-1.13,1.37-1.46.56-.33,1.18-.49,1.88-.49.93,0,1.36.31,1.62.58.25.26.59.72.59,1.78s-.35,1.97-1.11,2.73Z"/>
    </g>
  </g>
</svg>